<svg xmlns="http://www.w3.org/2000/svg" viewBox="0 0 64 64">
  <defs>
    <linearGradient id="bg" x1="0" y1="0" x2="1" y2="1">
      <stop offset="0" stop-color="#143d6b"/>
      <stop offset="1" stop-color="#0a2647"/>
    </linearGradient>
    <linearGradient id="t" x1="0" y1="0" x2="0.6" y2="1">
      <stop offset="0" stop-color="#ff9a4a"/>
      <stop offset="0.55" stop-color="#ff6b1a"/>
      <stop offset="1" stop-color="#e25510"/>
    </linearGradient>
  </defs>
  <rect width="64" height="64" rx="12" fill="url(#bg)"/>
  <g transform="translate(32 32)">
    <path d="M-22 -20 Q0 -17 22 -20 Q18 -13 0 -13 Q-18 -13 -22 -20 Z" fill="url(#t)"/>
    <path d="M-19 -11 Q0 -9 19 -11 Q15 -5 0 -5 Q-15 -5 -19 -11 Z" fill="url(#t)" opacity="0.94"/>
    <path d="M-16 -3 Q0 -1 16 -3 Q12 3 0 3 Q-12 3 -16 -3 Z" fill="url(#t)" opacity="0.88"/>
    <path d="M-12 5 Q0 7 12 5 Q9 10 0 10 Q-9 10 -12 5 Z" fill="url(#t)" opacity="0.80"/>
    <path d="M-8 12 Q0 13 8 12 Q5 16 0 16 Q-5 16 -8 12 Z" fill="url(#t)" opacity="0.70"/>
    <ellipse cx="0" cy="20" rx="3.5" ry="1.2" fill="url(#t)" opacity="0.55"/>
  </g>
</svg>
